<svg xmlns="http://www.w3.org/2000/svg" xmlns:xlink="http://www.w3.org/1999/xlink" version="1.1" width="256" height="256" viewBox="0 0 256 256" xml:space="preserve">

<defs>
</defs>
<g style="stroke: none; stroke-width: 0; stroke-dasharray: none; stroke-linecap: butt; stroke-linejoin: miter; stroke-miterlimit: 10; fill: none; fill-rule: nonzero; opacity: 1;" transform="translate(1.4065934065934016 1.4065934065934016) scale(2.81 2.81)" >
	<path d="M 67.858 85.281 L 1.93 81.303 c -1.205 -0.073 -2.123 -1.109 -2.051 -2.314 l 3.978 -65.928 c 0.073 -1.205 1.109 -2.123 2.314 -2.051 l 65.928 3.978 c 1.205 0.073 2.123 1.109 2.051 2.314 L 70.172 83.23 C 70.099 84.435 69.063 85.353 67.858 85.281 z" style="stroke: none; stroke-width: 1; stroke-dasharray: none; stroke-linecap: butt; stroke-linejoin: miter; stroke-miterlimit: 10; fill: rgb(232,232,232); fill-rule: nonzero; opacity: 1;" transform=" matrix(1 0 0 1 0 0) " stroke-linecap="round" />
	<path d="M 23.281 87.532 l 64.827 -12.64 c 1.185 -0.231 1.958 -1.379 1.727 -2.564 L 77.195 7.501 c -0.231 -1.185 -1.379 -1.958 -2.564 -1.727 L 9.804 18.414 c -1.185 0.231 -1.958 1.379 -1.727 2.564 l 12.64 64.827 C 20.948 86.99 22.096 87.764 23.281 87.532 z" style="stroke: none; stroke-width: 1; stroke-dasharray: none; stroke-linecap: butt; stroke-linejoin: miter; stroke-miterlimit: 10; fill: rgb(243,242,240); fill-rule: nonzero; opacity: 1;" transform=" matrix(1 0 0 1 0 0) " stroke-linecap="round" />
	<path d="M 51.408 2.051 c -3.539 0 -6.407 2.869 -6.407 6.407 c 0 1.506 0.523 2.888 1.393 3.982 l -7.17 9.31 c -0.52 0.675 -0.394 1.644 0.281 2.163 c 0.28 0.216 0.611 0.32 0.94 0.32 c 0.462 0 0.919 -0.207 1.223 -0.602 l 7.168 -9.308 c 0.787 0.346 1.656 0.54 2.571 0.54 c 3.539 0 6.407 -2.869 6.407 -6.407 S 54.946 2.051 51.408 2.051 z" style="stroke: none; stroke-width: 1; stroke-dasharray: none; stroke-linecap: butt; stroke-linejoin: miter; stroke-miterlimit: 10; fill: rgb(255,90,96); fill-rule: nonzero; opacity: 1;" transform=" matrix(1 0 0 1 0 0) " stroke-linecap="round" />
</g>
</svg>